<svg width="24" height="24" viewBox="0 0 20 24" fill="none" xmlns="http://www.w3.org/2000/svg">
<path d="M14.8053 0C14.8628 0 14.9203 0 14.981 0C15.1221 1.83165 14.457 3.20026 13.6488 4.19135C12.8558 5.17561 11.7698 6.13021 10.0134 5.98537C9.89626 4.17995 10.5624 2.91285 11.3695 1.92403C12.1181 1.0025 13.4904 0.182481 14.8053 0Z" fill="#282828"/>
<path d="M20 17.6912C20 17.7078 20 17.7224 20 17.738C19.5099 19.1733 18.8107 20.4034 17.9576 21.545C17.1787 22.5814 16.2243 23.976 14.5201 23.976C13.0475 23.976 12.0694 23.0605 10.5602 23.0355C8.9637 23.0105 8.08575 23.8011 6.62609 24C6.45912 24 6.29215 24 6.12841 24C5.05656 23.85 4.19153 23.0292 3.56135 22.2897C1.70311 20.1045 0.267155 17.2818 0 13.6696C0 13.3155 0 12.9624 0 12.6083C0.11311 10.0231 1.41226 7.92119 3.13907 6.90253C4.05041 6.36091 5.30324 5.89949 6.69827 6.10572C7.29613 6.1953 7.90693 6.3932 8.44231 6.58901C8.94969 6.77754 9.58419 7.11188 10.1853 7.09418C10.5925 7.08272 10.9975 6.87753 11.408 6.73275C12.6101 6.313 13.7886 5.83179 15.342 6.05781C17.2089 6.3307 18.5339 7.13272 19.3526 8.37011C17.7733 9.3419 16.5248 10.8064 16.7381 13.3072C16.9277 15.5789 18.2937 16.9079 20 17.6912Z" fill="#282828"/>
</svg>
