<svg width="48" height="20" viewBox="0 0 48 20" fill="none" xmlns="http://www.w3.org/2000/svg">
<path d="M9.16098 2.94957C8.61284 3.59134 7.73581 4.09753 6.85879 4.02521C6.74916 3.15747 7.17854 2.23549 7.681 1.66603C8.22914 1.00618 9.18839 0.536156 9.96492 0.5C10.0563 1.4039 9.69998 2.28972 9.16098 2.94957ZM9.95578 4.19695C8.68592 4.12464 7.59878 4.91104 6.99583 4.91104C6.38374 4.91104 5.46103 4.23311 4.45611 4.25119C3.14971 4.26927 1.93467 5.00143 1.26777 6.16746C-0.102584 8.49952 0.911475 11.9524 2.23615 13.8506C2.88478 14.7907 3.66131 15.8211 4.6845 15.785C5.65288 15.7488 6.03658 15.1613 7.20595 15.1613C8.38445 15.1613 8.72247 15.785 9.74566 15.7669C10.8054 15.7488 11.4723 14.8268 12.1209 13.8868C12.8609 12.8202 13.1624 11.7807 13.1807 11.7265C13.1624 11.7084 11.1343 10.9401 11.116 8.62607C11.0977 6.69172 12.7147 5.76974 12.7878 5.71551C11.8743 4.37774 10.4491 4.23311 9.95578 4.19695ZM17.2917 1.57564V15.6675H19.5025V10.8497H22.563C25.3585 10.8497 27.3227 8.95147 27.3227 6.20362C27.3227 3.45576 25.3951 1.57564 22.6361 1.57564H17.2917ZM19.5025 3.4196H22.0514C23.9699 3.4196 25.0662 4.43197 25.0662 6.21265C25.0662 7.99334 23.9699 9.01475 22.0423 9.01475H19.5025V3.4196ZM31.3606 15.7759C32.7493 15.7759 34.0374 15.0799 34.6221 13.9772H34.6677V15.6675H36.7141V8.65319C36.7141 6.61941 35.0697 5.30875 32.5391 5.30875C30.1913 5.30875 28.4555 6.63749 28.3915 8.46337H30.3831C30.5476 7.59562 31.3606 7.02617 32.4752 7.02617C33.8273 7.02617 34.5855 7.64986 34.5855 8.79781V9.57517L31.8266 9.73787C29.2594 9.89153 27.8708 10.931 27.8708 12.7388C27.8708 14.5647 29.3051 15.7759 31.3606 15.7759ZM31.9545 14.1037C30.776 14.1037 30.0268 13.5433 30.0268 12.6846C30.0268 11.7988 30.7485 11.2835 32.128 11.2022L34.5855 11.0485V11.844C34.5855 13.1637 33.4527 14.1037 31.9545 14.1037ZM39.4457 19.5C41.6017 19.5 42.6158 18.6865 43.5019 16.2188L47.3846 5.44434H45.1372L42.5336 13.7693H42.4879L39.8842 5.44434H37.5729L41.3185 15.7036L41.1175 16.3273C40.7795 17.3849 40.2314 17.7916 39.2538 17.7916C39.0803 17.7916 38.7422 17.7735 38.6052 17.7555V19.4458C38.7331 19.4819 39.2813 19.5 39.4457 19.5Z" fill="#282828"/>
</svg>
