<svg width="28" height="28" viewBox="0 0 28 28" fill="none" xmlns="http://www.w3.org/2000/svg">
<path d="M23.5582 17.8426C23.5366 17.7692 23.4964 17.7026 23.4415 17.6493C23.3867 17.596 23.319 17.5577 23.245 17.5382C22.978 17.5023 19.6775 16.5273 19.5307 16.6251C19.5474 16.6124 16.1489 17.5168 16.0457 17.5382C15.9711 17.5563 15.9026 17.5941 15.8475 17.6476C15.7924 17.7012 15.7527 17.7685 15.7325 17.8426C15.5552 18.2089 14.7812 22.6659 17.1177 24.8125C17.7873 25.4724 18.6081 25.9585 19.5086 26.2285C19.596 26.2572 19.6902 26.2572 19.7776 26.2285C25.3271 24.4464 23.5759 17.9088 23.5582 17.8426ZM19.8306 24.4508C19.773 24.4792 19.7096 24.4939 19.6453 24.4939C19.5811 24.4939 19.5177 24.4792 19.4601 24.4508C16.9897 23.3127 16.9368 20.6923 17.1309 19.2322C17.1422 19.1456 17.1788 19.0643 17.2361 18.9984C17.2934 18.9325 17.3688 18.8849 17.4529 18.8616L19.5306 18.319C19.5463 18.2086 21.7403 18.858 21.8334 18.8616C21.9184 18.884 21.9949 18.9312 22.053 18.9972C22.1111 19.0632 22.1483 19.145 22.1598 19.2322C22.3495 20.6923 22.301 23.3127 19.8306 24.4508Z" fill="#282828"/>
<path d="M19.6453 19.2013L17.9734 19.6424C17.8632 20.8467 18.0087 22.6818 19.6453 23.5597C21.2819 22.6818 21.4231 20.8467 21.3172 19.6424L19.6453 19.2013Z" fill="#282828"/>
<path d="M9.90951 6.71722H14.3032C14.4973 6.71695 14.6834 6.63971 14.8207 6.50244C14.958 6.36516 15.0352 6.17906 15.0355 5.98492C15.0289 4.5177 15.2759 4.14245 13.5709 3.96017L13.5709 3.2102C13.5702 2.82279 13.4159 2.45149 13.1417 2.17779C12.8675 1.90409 12.496 1.75037 12.1086 1.75037C11.7211 1.75037 11.3496 1.90409 11.0754 2.17779C10.8012 2.45149 10.6469 2.82279 10.6462 3.2102V3.96014C10.0491 4.05708 9.18888 4.0741 9.17725 4.83801V5.98492C9.17826 6.17882 9.25573 6.36449 9.39284 6.5016C9.52994 6.63872 9.71561 6.7162 9.90951 6.71722ZM12.1064 2.41616C12.3269 2.41791 12.5379 2.50676 12.6932 2.66334C12.8485 2.81992 12.9357 3.03155 12.9357 3.25212C12.9357 3.47269 12.8485 3.68431 12.6932 3.84089C12.5378 3.99747 12.3269 4.08631 12.1063 4.08806C11.8859 4.0861 11.6752 3.99716 11.52 3.8406C11.3648 3.68404 11.2778 3.47253 11.2778 3.2521C11.2778 3.03167 11.3649 2.82016 11.52 2.6636C11.6752 2.50705 11.8859 2.41811 12.1064 2.41616Z" fill="#282828"/>
<path d="M14.8812 17.6043C14.9436 17.382 15.0632 17.1798 15.2281 17.0181C15.3929 16.8563 15.5973 16.7406 15.8208 16.6823L19.1646 15.8089C19.449 15.7088 19.7578 15.7011 20.0469 15.7868V6.7436C20.0467 6.17931 19.8228 5.63811 19.4242 5.23869C19.0256 4.83926 18.4849 4.61422 17.9206 4.61292H15.9046C15.9343 4.99635 15.9104 5.60187 15.9178 5.98484C15.9176 6.41298 15.7475 6.82353 15.4447 7.12628C15.142 7.42902 14.7314 7.59919 14.3033 7.59939H9.90956C9.48142 7.59918 9.07087 7.42901 8.76814 7.12627C8.4654 6.82353 8.29523 6.41298 8.29503 5.98484C8.30324 5.61182 8.27847 4.98909 8.30824 4.61295L6.29227 4.61292C5.72821 4.61497 5.18791 4.84025 4.78948 5.23952C4.39104 5.63878 4.16689 6.17955 4.16602 6.74361V22.6862C4.16707 23.2498 4.39142 23.79 4.78994 24.1885C5.18846 24.587 5.72867 24.8114 6.29227 24.8124H15.9266C15.716 24.5359 15.5315 24.2406 15.3752 23.9302C13.9327 21.0981 14.8679 17.6572 14.8812 17.6043ZM13.4122 10.3521H17.6294C17.7453 10.3538 17.8559 10.401 17.9372 10.4835C18.0186 10.5661 18.0642 10.6773 18.0642 10.7932C18.0642 10.9091 18.0186 11.0204 17.9372 11.1029C17.8559 11.1855 17.7453 11.2327 17.6294 11.2344H13.4122C13.2961 11.2329 13.1854 11.1857 13.1039 11.1032C13.0224 11.0206 12.9767 10.9092 12.9767 10.7932C12.9767 10.6772 13.0224 10.5659 13.1039 10.4833C13.1854 10.4007 13.2961 10.3536 13.4122 10.3521ZM10.2448 10.3521H11.5153C11.6313 10.3536 11.742 10.4007 11.8235 10.4833C11.905 10.5659 11.9507 10.6772 11.9507 10.7932C11.9507 10.9092 11.905 11.0206 11.8235 11.1032C11.742 11.1857 11.6313 11.2329 11.5153 11.2344H10.2448C10.1289 11.2327 10.0183 11.1855 9.93698 11.1029C9.85562 11.0204 9.81001 10.9091 9.81001 10.7932C9.81001 10.6773 9.85562 10.5661 9.93698 10.4835C10.0183 10.401 10.1289 10.3538 10.2448 10.3521ZM10.2448 15.1252H15.9398C16.0557 15.1269 16.1662 15.1742 16.2475 15.2567C16.3288 15.3392 16.3744 15.4504 16.3744 15.5663C16.3743 15.6822 16.3288 15.7934 16.2475 15.8759C16.1662 15.9584 16.0557 16.0057 15.9398 16.0074H10.2448C10.1288 16.0059 10.0181 15.9587 9.93667 15.8762C9.85521 15.7936 9.80953 15.6823 9.80953 15.5663C9.80953 15.4503 9.85521 15.339 9.93667 15.2564C10.0181 15.1738 10.1288 15.1267 10.2448 15.1252ZM9.09346 18.888L7.9024 20.5952C7.86563 20.6478 7.81772 20.6917 7.76206 20.7238C7.70641 20.7558 7.64438 20.7751 7.5804 20.7805C7.51587 20.7853 7.45105 20.7764 7.39022 20.7543C7.32938 20.7323 7.27391 20.6976 7.22747 20.6525L6.41579 19.8409C6.33615 19.7572 6.29246 19.6457 6.29408 19.5302C6.2957 19.4148 6.34251 19.3045 6.42445 19.2232C6.5064 19.1418 6.61697 19.0958 6.73246 19.095C6.84794 19.0942 6.95914 19.1386 7.04221 19.2189L7.47891 19.6556L8.37 18.3851C8.4375 18.2912 8.53921 18.2276 8.65318 18.2081C8.76716 18.1885 8.88426 18.2145 8.97921 18.2805C9.07417 18.3465 9.13937 18.4472 9.16074 18.5609C9.18212 18.6745 9.15795 18.792 9.09346 18.888ZM9.09346 14.115L7.9024 15.8177C7.86586 15.8712 7.81797 15.9159 7.76215 15.9487C7.70633 15.9815 7.64394 16.0016 7.57946 16.0075C7.51498 16.0134 7.45 16.005 7.38915 15.9828C7.32829 15.9607 7.27308 15.9254 7.22745 15.8795L6.41578 15.0678C6.33559 14.9842 6.29144 14.8726 6.29282 14.7568C6.29421 14.641 6.34104 14.5304 6.4232 14.4488C6.50537 14.3672 6.6163 14.3212 6.73209 14.3206C6.84787 14.3201 6.95925 14.365 7.0422 14.4458L7.4789 14.8825L8.37 13.6076C8.43858 13.515 8.54061 13.4529 8.65436 13.4344C8.7681 13.416 8.88456 13.4426 8.97891 13.5088C9.07325 13.575 9.13803 13.6754 9.15943 13.7886C9.18083 13.9018 9.15716 14.0189 9.09346 14.115ZM9.09346 9.33746L7.9024 11.0447C7.86564 11.0973 7.81773 11.1412 7.76207 11.1732C7.70642 11.2052 7.64439 11.2246 7.5804 11.2299C7.51573 11.2368 7.45034 11.2288 7.38919 11.2066C7.32805 11.1845 7.27275 11.1487 7.22747 11.102L6.4158 10.2903C6.33612 10.2067 6.29238 10.0952 6.29398 9.97966C6.29558 9.86415 6.34239 9.75388 6.42436 9.67249C6.50633 9.5911 6.61693 9.54508 6.73244 9.54431C6.84795 9.54353 6.95917 9.58806 7.04222 9.66835L7.47892 10.105L8.37002 8.83458C8.43765 8.741 8.5393 8.6777 8.65312 8.65831C8.76694 8.63891 8.88382 8.66497 8.97863 8.73087C9.07343 8.79677 9.13858 8.89725 9.16005 9.01069C9.18153 9.12414 9.15762 9.24146 9.09346 9.33746ZM13.6151 20.7849H10.2448C10.129 20.7832 10.0184 20.7359 9.93708 20.6534C9.85575 20.5709 9.81017 20.4596 9.81017 20.3437C9.81017 20.2279 9.85576 20.1166 9.9371 20.0341C10.0184 19.9516 10.129 19.9043 10.2448 19.9026H13.6151C13.7309 19.9044 13.8414 19.9517 13.9226 20.0342C14.0039 20.1167 14.0495 20.2279 14.0495 20.3438C14.0495 20.4596 14.0039 20.5708 13.9226 20.6533C13.8414 20.7358 13.7309 20.7831 13.6151 20.7849Z" fill="#282828"/>
</svg>
