<svg width="46" height="22" viewBox="0 0 46 22" fill="none" xmlns="http://www.w3.org/2000/svg">
<g clip-path="url(#clip0_2001_780)">
<path d="M21.735 11.3583V16.4843H20.01V3.80713H24.495C25.5875 3.80713 26.6225 4.19296 27.4275 4.90949C28.2325 5.57091 28.635 6.56303 28.635 7.61028C28.635 8.65752 28.2325 9.59453 27.4275 10.3111C26.6225 11.0276 25.645 11.4134 24.495 11.4134L21.735 11.3583ZM21.735 5.35044V9.75988H24.61C25.2425 9.75988 25.875 9.53941 26.2775 9.09847C27.1975 8.2717 27.1975 6.89374 26.335 6.06697L26.2775 6.01185C25.8175 5.57091 25.2425 5.29532 24.61 5.35044H21.735Z" fill="#282828"/>
<path d="M32.6025 7.55518C33.8675 7.55518 34.845 7.88588 35.5925 8.5473C36.34 9.20872 36.685 10.0906 36.685 11.193V16.4843H35.075V15.2717H35.0175C34.3275 16.2638 33.35 16.7599 32.2 16.7599C31.2225 16.7599 30.36 16.4843 29.67 15.9331C29.0375 15.3819 28.635 14.6103 28.635 13.7835C28.635 12.9016 28.98 12.1851 29.67 11.6339C30.36 11.0827 31.3375 10.8623 32.4875 10.8623C33.5225 10.8623 34.3275 11.0276 34.96 11.4134V11.0276C34.96 10.4764 34.73 9.92525 34.27 9.59455C33.81 9.20872 33.235 8.98825 32.6025 8.98825C31.625 8.98825 30.8775 9.37407 30.36 10.1457L28.865 9.26384C29.785 8.10636 30.9925 7.55518 32.6025 7.55518ZM30.4175 13.8386C30.4175 14.2796 30.6475 14.6654 30.9925 14.8859C31.395 15.1615 31.855 15.3268 32.315 15.3268C33.005 15.3268 33.695 15.0512 34.2125 14.5552C34.7875 14.0591 35.075 13.4528 35.075 12.7914C34.5575 12.4056 33.81 12.1851 32.8325 12.1851C32.1425 12.1851 31.5675 12.3505 31.1075 12.6812C30.6475 12.9568 30.4175 13.3426 30.4175 13.8386Z" fill="#282828"/>
<path d="M46 7.83081L40.3075 20.3426H38.5825L40.71 15.9883L36.9725 7.88593H38.8125L41.515 14.1143H41.5725L44.2175 7.88593H46V7.83081Z" fill="#282828"/>
<path d="M14.8925 10.256C14.8925 9.75995 14.835 9.26389 14.7775 8.76782H7.59003V11.5788H11.6725C11.5 12.4607 10.9825 13.2875 10.1775 13.7836V15.6025H12.65C14.0875 14.3348 14.8925 12.4607 14.8925 10.256Z" fill="#4285F4"/>
<path d="M7.58999 17.3661C9.65999 17.3661 11.385 16.7047 12.65 15.6024L10.1775 13.7835C9.48749 14.2244 8.62499 14.5 7.58999 14.5C5.63499 14.5 3.90999 13.2323 3.33499 11.4685H0.804993V13.3425C2.12749 15.8228 4.71499 17.3661 7.58999 17.3661Z" fill="#34A853"/>
<path d="M3.33509 11.4685C2.99009 10.5866 2.99009 9.59447 3.33509 8.65746V6.78345H0.805093C-0.287407 8.82282 -0.287407 11.248 0.805093 13.3425L3.33509 11.4685Z" fill="#FBBC04"/>
<path d="M7.58999 5.68112C8.68249 5.68112 9.71749 6.06695 10.5225 6.78348L12.7075 4.68899C11.3275 3.47639 9.48749 2.75986 7.64749 2.81498C4.77249 2.81498 2.12749 4.35828 0.862488 6.8386L3.39249 8.71262C3.90999 6.94884 5.63499 5.68112 7.58999 5.68112Z" fill="#EA4335"/>
</g>
<defs>
<clipPath id="clip0_2001_780">
<rect width="46" height="21" fill="white" transform="translate(0 0.5)"/>
</clipPath>
</defs>
</svg>
