<svg width="38" height="22" viewBox="0 0 38 22" fill="none" xmlns="http://www.w3.org/2000/svg">
<path d="M23.5 2H13.5V19H23.5V2Z" fill="#FF5F00"/>
<path d="M15.0032 10.9975C15.0032 7.6379 16.6651 4.43105 19.4674 2.35423C14.3841 -1.40236 7.01979 -0.577745 3.01179 4.21726C-0.996216 8.98172 -0.11641 15.8841 4.9995 19.6407C9.26819 22.7864 15.2313 22.7864 19.5 19.6407C16.6651 17.5639 15.0032 14.357 15.0032 10.9975Z" fill="#EB001B"/>
<path d="M37.5 11.0013C37.5 17.0811 32.5206 22 26.366 22C23.8608 22 21.4485 21.1751 19.5 19.6475C24.3247 15.8896 25.1598 8.98484 21.3557 4.18817C20.799 3.51603 20.1804 2.87443 19.5 2.35505C24.3247 -1.40285 31.3454 -0.577945 35.1186 4.21872C36.6649 6.1435 37.5 8.52656 37.5 11.0013Z" fill="#F79E1B"/>
<path d="M36.7333 17.4276V17.0611H36.9V17H36.5V17.0611H36.6667V17.4276H36.7333ZM37.5 17.4276V17H37.3667L37.2333 17.3054L37.1 17H36.9667V17.4276H37.0667V17.0916L37.2 17.3665H37.3L37.4333 17.0916V17.4276H37.5Z" fill="#F79E1B"/>
</svg>
