<svg width="28" height="28" viewBox="0 0 28 28" fill="none" xmlns="http://www.w3.org/2000/svg">
<path d="M8.84625 2.62849C8.89259 2.79456 8.9918 2.94101 9.12885 3.04562C9.26591 3.15024 9.43333 3.20732 9.60575 3.20822H13.4304C13.6034 3.20721 13.7714 3.14953 13.9085 3.04403C14.0457 2.93852 14.1445 2.79098 14.1899 2.62398C14.2324 2.46587 14.3858 1.90521 14.4281 1.75659H8.60803C8.65069 1.90119 8.80333 2.47204 8.84625 2.62849Z" fill="#282828"/>
<path d="M15.7584 14.2822H14.7787C14.2933 14.2819 13.8277 14.0893 13.484 13.7464C13.1403 13.4036 12.9465 12.9385 12.9451 12.453C12.9447 10.913 12.9453 9.04335 12.9451 7.51367C12.9465 7.02822 13.1403 6.56312 13.484 6.22027C13.8277 5.87741 14.2933 5.68475 14.7787 5.68449C14.8974 5.69114 16.8121 5.67972 16.8821 5.68449V3.10949C16.8805 2.91744 16.8387 2.72785 16.7593 2.55298C16.6799 2.37811 16.5647 2.22187 16.421 2.09436C16.2774 1.96684 16.1086 1.8709 15.9256 1.81275C15.7426 1.75459 15.5493 1.73551 15.3585 1.75674L15.3001 1.9814L15.0574 2.86226C14.9597 3.2192 14.7477 3.53426 14.4538 3.75913C14.1599 3.98401 13.8004 4.10628 13.4304 4.10721H9.60573C9.23634 4.10635 8.87737 3.98464 8.58362 3.76066C8.28987 3.53669 8.07747 3.22275 7.97885 2.86677L7.73612 1.9814L7.67771 1.7567C7.48658 1.73531 7.29308 1.75425 7.10972 1.8123C6.92636 1.87035 6.75722 1.96621 6.61322 2.0937C6.46921 2.22119 6.35355 2.37746 6.2737 2.55243C6.19386 2.7274 6.1516 2.91717 6.14966 3.10949V10.7363C6.83133 10.9381 7.4196 11.3745 7.81032 11.9684C8.20103 12.5623 8.36897 13.2753 8.2844 13.9812C8.13013 14.4732 8.56671 14.8831 8.52708 15.3969C9.05758 15.7673 9.48825 16.2631 9.78073 16.8402C10.0732 17.4173 10.2184 18.0578 10.2034 18.7047C11.4306 18.7041 14.3422 18.705 15.5337 18.7047C15.711 18.7044 15.8866 18.6692 16.0504 18.6011C16.2141 18.5329 16.3629 18.4332 16.4881 18.3076C16.6133 18.182 16.7125 18.0329 16.7801 17.8689C16.8477 17.705 16.8823 17.5293 16.882 17.3519V14.2822C16.7519 14.2731 15.9105 14.2888 15.7584 14.2822ZM11.0934 8.10692H11.6462C11.7641 8.10894 11.8765 8.15717 11.9591 8.24124C12.0417 8.3253 12.088 8.43846 12.088 8.55635C12.088 8.67423 12.0417 8.78739 11.9591 8.87146C11.8765 8.95552 11.7641 9.00375 11.6462 9.00577H11.0934C10.9755 9.00375 10.8631 8.95552 10.7805 8.87146C10.6979 8.78739 10.6516 8.67423 10.6516 8.55635C10.6516 8.43846 10.6979 8.3253 10.7805 8.24124C10.8631 8.15717 10.9755 8.10894 11.0934 8.10692ZM10.1316 9.5316H11.6462C11.7641 9.53361 11.8765 9.58185 11.9591 9.66591C12.0417 9.74998 12.088 9.86314 12.088 9.98102C12.088 10.0989 12.0417 10.2121 11.9591 10.2961C11.8765 10.3802 11.7641 10.4284 11.6462 10.4304H10.1316C10.0144 10.4274 9.90311 10.3787 9.82134 10.2948C9.73957 10.2108 9.69381 10.0983 9.69381 9.98111C9.69381 9.86393 9.73957 9.75138 9.82134 9.66745C9.90311 9.58352 10.0144 9.53466 10.1316 9.5316ZM8.67561 11.8598C8.55774 11.8578 8.44539 11.8096 8.36275 11.7255C8.28011 11.6414 8.2338 11.5283 8.2338 11.4104C8.2338 11.2925 8.28011 11.1793 8.36275 11.0953C8.44539 11.0112 8.55774 10.963 8.67561 10.961H11.6462C11.7641 10.963 11.8765 11.0112 11.9591 11.0953C12.0417 11.1793 12.088 11.2925 12.088 11.4104C12.088 11.5283 12.0417 11.6414 11.9591 11.7255C11.8765 11.8096 11.7641 11.8578 11.6462 11.8598H8.67561ZM12.5856 16.39H10.4507C10.3323 16.3889 10.2191 16.341 10.1357 16.2568C10.0524 16.1727 10.0057 16.059 10.0057 15.9406C10.0057 15.8222 10.0524 15.7085 10.1357 15.6244C10.2191 15.5402 10.3323 15.4923 10.4507 15.4912H12.5857C12.7041 15.4924 12.8173 15.5403 12.9006 15.6244C12.9839 15.7086 13.0306 15.8223 13.0306 15.9407C13.0305 16.0591 12.9838 16.1728 12.9004 16.2569C12.8171 16.3411 12.7041 16.3889 12.5856 16.39Z" fill="#282828"/>
<path d="M6.40137 21.1359C5.97306 20.9453 5.25272 20.6097 4.82839 20.4213C4.80154 20.409 4.77095 20.4078 4.74321 20.4179C4.71547 20.428 4.69279 20.4486 4.68007 20.4752C4.68007 20.4796 4.43367 21.0006 4.43739 21.0055L3.38569 23.3336C3.37884 23.3468 3.3748 23.3612 3.37383 23.376C3.37285 23.3908 3.37497 23.4057 3.38005 23.4196C3.38512 23.4335 3.39303 23.4463 3.40329 23.457C3.41355 23.4677 3.42593 23.4762 3.43963 23.4819L9.51589 26.2412C9.52945 26.2473 9.54407 26.2505 9.55891 26.2508C9.57374 26.2512 9.5885 26.2485 9.6023 26.2431C9.61611 26.2376 9.62869 26.2295 9.63932 26.2192C9.64995 26.2088 9.65841 26.1964 9.66421 26.1828L10.9585 23.329C10.9654 23.3158 10.9695 23.3014 10.9704 23.2865C10.9714 23.2717 10.9693 23.2569 10.9642 23.2429C10.9591 23.229 10.9512 23.2162 10.941 23.2055C10.9307 23.1948 10.9183 23.1863 10.9046 23.1806L6.40137 21.1359Z" fill="#282828"/>
<path d="M13.8438 9.10933V9.77896C13.8438 9.77896 20.5312 9.77896 21.0615 9.77896C21.1794 9.78098 21.2918 9.82921 21.3744 9.91328C21.457 9.99734 21.5033 10.1105 21.5033 10.2284C21.5033 10.3463 21.457 10.4594 21.3744 10.5435C21.2918 10.6276 21.1794 10.6758 21.0615 10.6778C20.4297 10.6781 14.239 10.6776 13.8438 10.6778V12.4531C13.8445 12.7003 13.9435 12.9372 14.1188 13.1116C14.2941 13.286 14.5314 13.3837 14.7787 13.3832C16.7277 13.3863 21.6407 13.3809 23.6953 13.3832C23.9418 13.3827 24.1781 13.2845 24.3525 13.1102C24.5268 12.9359 24.625 12.6996 24.6255 12.4531V9.10933C24.5875 9.11134 14.234 9.1088 13.8438 9.10933Z" fill="#282828"/>
<path d="M23.6953 6.58351C22.1225 6.58351 16.2545 6.5832 14.7787 6.58351C14.5314 6.58308 14.294 6.68082 14.1188 6.85526C13.9435 7.02969 13.8446 7.26657 13.8439 7.51385V8.21044C14.8028 8.20948 23.6209 8.21114 24.6256 8.21044V7.51381C24.6251 7.26722 24.527 7.03087 24.3526 6.85651C24.1782 6.68215 23.9419 6.58398 23.6953 6.58351Z" fill="#282828"/>
<path d="M10.1181 19.6034L9.97177 20.2082L9.95716 20.2047C9.73942 20.1511 9.549 20.0193 9.42216 19.8344C9.29533 19.6495 9.24094 19.4243 9.26937 19.2019C9.28977 19.0368 9.30155 18.8707 9.30467 18.7044C9.32157 18.1213 9.16874 17.5458 8.86475 17.048C8.56076 16.5501 8.1187 16.1513 7.5923 15.9C7.65171 15.6466 7.64881 15.3825 7.58385 15.1305C7.5189 14.8785 7.39382 14.6459 7.21933 14.4528C7.3886 14.0958 7.44861 13.6968 7.39184 13.3058C7.33506 12.9148 7.16403 12.5492 6.90022 12.2551C6.41971 11.6169 4.66735 10.9438 4.57215 12.1832C4.60203 12.9263 4.60851 13.6539 4.56318 14.4438C4.42756 16.81 5.12699 18.3544 5.47112 19.7291C6.29774 20.0972 9.97339 21.7733 10.8911 22.1874C11.1852 21.7796 11.5658 21.442 12.0057 21.1987C12.6837 20.8455 13.2327 20.2871 13.5742 19.6032L10.1181 19.6034Z" fill="#282828"/>
</svg>
