<svg width="30" height="30" viewBox="0 0 30 30" fill="none" xmlns="http://www.w3.org/2000/svg">
<path d="M29.2664 10.6647C28.9224 7.98093 27.9591 5.538 26.2735 3.74882C24.4846 2.06285 22.042 1.09944 19.3587 0.755368C16.7786 0.411293 15.0241 0.514516 15.0241 0.514516C15.0241 0.514516 13.2696 0.445701 10.6894 0.755368C8.0061 1.09944 5.56358 2.06285 3.77468 3.74882C2.089 5.538 1.12575 7.98093 0.781728 10.6647C0.43771 13.2453 0.506514 15.0001 0.506514 15.0001C0.506514 15.0001 0.43771 16.7548 0.747326 19.3354C1.09134 22.0188 2.05459 24.4621 3.74028 26.2513C5.52917 27.9373 7.9717 28.9003 10.655 29.2444C13.2352 29.5885 14.9897 29.4856 14.9897 29.4856C14.9897 29.4856 16.7442 29.5541 19.3243 29.2444C22.0076 28.9003 24.4502 27.9373 26.239 26.2513C27.9247 24.4624 28.888 22.0188 29.232 19.3354C29.576 16.7548 29.4728 15.0001 29.4728 15.0001C29.4728 15.0001 29.6104 13.2453 29.2664 10.6647Z" fill="#1E4BC6"/>
<path d="M5.5 10.5H8.14954C8.56789 10.5 8.91651 10.5662 9.26514 10.6987C9.61376 10.8311 9.89266 11.0298 10.1367 11.2616C10.3807 11.4934 10.5899 11.7583 10.7294 12.0894C10.8688 12.4205 10.9385 12.7517 10.9385 13.1159C10.9385 13.4801 10.8688 13.8113 10.7294 14.1424C10.5899 14.4735 10.3807 14.7387 10.1367 14.9702C9.89266 15.2017 9.5789 15.401 9.26514 15.5328C8.95138 15.6652 8.56789 15.7321 8.14954 15.7321H6.96422V17.8179H5.53486V10.5H5.5ZM6.92936 11.7586V14.4407H8.04495C8.25413 14.4407 8.4633 14.4076 8.63761 14.3414C8.81193 14.2752 8.95138 14.1758 9.09083 14.0434C9.23028 13.9109 9.3 13.7785 9.36972 13.6129C9.43945 13.4474 9.47431 13.2818 9.47431 13.0831C9.47431 12.8844 9.43945 12.7189 9.36972 12.5533C9.3 12.3877 9.19541 12.2553 9.09083 12.1228C8.95138 11.9904 8.81193 11.8911 8.63761 11.8248C8.4633 11.7586 8.25413 11.7255 8.04495 11.7255H6.92936V11.7586ZM14.2505 17.8179C13.867 17.8179 13.5183 17.752 13.1349 17.6192C12.7862 17.4868 12.4376 17.2881 12.1587 17.0566C11.8798 16.7914 11.6358 16.4934 11.4615 16.1291C11.2872 15.7649 11.1826 15.3344 11.1826 14.8709C11.1826 14.4073 11.2523 13.9768 11.4266 13.6126C11.6009 13.2483 11.845 12.9503 12.1239 12.6854C12.4028 12.4205 12.7514 12.255 13.1 12.1225C13.4835 11.9901 13.8321 11.9238 14.2505 11.9238C14.6688 11.9238 15.0523 11.9901 15.3661 12.1225C15.7147 12.255 15.9936 12.4536 16.2376 12.6854V11.9238H17.667V17.8175H16.2376V16.9897C16.0284 17.255 15.7147 17.4533 15.3661 17.6189C15.0174 17.752 14.6688 17.8179 14.2505 17.8179ZM14.4945 16.593C14.7734 16.593 15.0174 16.5599 15.2266 16.4606C15.4358 16.3613 15.645 16.2619 15.8193 16.0964C15.9936 15.9308 16.0982 15.7652 16.2028 15.5666C16.3073 15.3672 16.3422 15.1358 16.3422 14.9043C16.3422 14.6722 16.3073 14.4404 16.2028 14.2421C16.0982 14.0434 15.9936 13.8447 15.8193 13.7123C15.645 13.5467 15.4706 13.4474 15.2266 13.348C14.9826 13.2156 14.7385 13.1825 14.4945 13.1825C14.2505 13.1825 14.0064 13.2156 13.7624 13.3149C13.5183 13.4142 13.344 13.5136 13.1697 13.6791C12.9954 13.8447 12.856 14.0103 12.7862 14.2089C12.6817 14.4076 12.6468 14.6394 12.6468 14.8712C12.6468 15.103 12.6817 15.3344 12.7862 15.5331C12.8908 15.7325 13.0303 15.9308 13.1697 16.0964C13.344 16.2619 13.5532 16.3609 13.7624 16.4606C13.9716 16.5265 14.2156 16.593 14.4945 16.593ZM19.6541 11.957L21.3972 15.9636L23.0009 11.957H24.5L20.8395 20.5H19.3752L20.6651 17.5533L18.155 11.957H19.6541Z" fill="white"/>
</svg>
