<svg width="36" height="26" viewBox="0 0 36 26" fill="none" xmlns="http://www.w3.org/2000/svg">
<path d="M34.5968 2.50714C33.2973 0.962391 30.8981 0.332275 26.3161 0.332275H9.68354C4.99668 0.332275 2.55681 1.00304 1.26221 2.64766C0 4.25117 0 6.61381 0 9.88377V16.1163C0 22.4513 1.4976 25.6677 9.68354 25.6677H26.3162C30.2897 25.6677 32.4915 25.1117 33.9159 23.7484C35.3767 22.3505 36 20.0679 36 16.1163V9.88377C36 6.43532 35.9023 4.05874 34.5968 2.50714ZM23.1121 13.8605L15.5593 17.8078C15.3905 17.8961 15.2058 17.9399 15.0214 17.9399C14.8126 17.9399 14.6043 17.8837 14.4197 17.7719C14.0723 17.5614 13.8601 17.1848 13.8601 16.7786V8.90922C13.8601 8.50369 14.0717 8.12744 14.4185 7.91678C14.7653 7.70612 15.1968 7.69172 15.5566 7.87869L23.1094 11.8006C23.4937 12.0001 23.735 12.3968 23.7356 12.8296C23.7361 13.2628 23.4958 13.6601 23.1121 13.8605Z" fill="#FF0000"/>
</svg>
