<svg width="28" height="28" viewBox="0 0 28 28" fill="none" xmlns="http://www.w3.org/2000/svg">
<path d="M21.2658 9.88003L25.3566 8.4942L15.7351 5.29395L12.0104 6.55908C12.0113 6.55839 21.2639 9.88333 21.2658 9.88003ZM19.7551 8.2362C19.7181 8.34049 19.6412 8.42581 19.5414 8.47341C19.4415 8.52102 19.3268 8.52702 19.2225 8.49008L15.219 7.09177C15.1154 7.05482 15.0306 6.97839 14.9832 6.87916C14.9357 6.77992 14.9294 6.66594 14.9657 6.56209C15.0019 6.45824 15.0778 6.37294 15.1767 6.32483C15.2757 6.27671 15.3896 6.26967 15.4937 6.30525L19.4971 7.7077C19.6013 7.74376 19.6869 7.81962 19.7352 7.91866C19.7836 8.01771 19.7908 8.1319 19.7551 8.2362Z" fill="#282828"/>
<path d="M10.7536 6.99195C10.7493 6.98929 6.32986 8.49427 6.32568 8.49427L15.735 11.757L19.9965 10.3129L10.7536 6.99195ZM16.1137 10.5168C16.0698 10.5181 16.026 10.511 15.9847 10.496L11.6442 9.05192C11.5412 9.01611 11.4565 8.94117 11.4084 8.84334C11.3602 8.74551 11.3526 8.63267 11.3871 8.52924C11.4215 8.42581 11.4954 8.34013 11.5926 8.29074C11.6898 8.24136 11.8025 8.23225 11.9064 8.26538L16.2469 9.70529C16.3392 9.73801 16.4172 9.80215 16.467 9.8865C16.5169 9.97086 16.5355 10.07 16.5196 10.1667C16.5038 10.2634 16.4544 10.3515 16.3802 10.4155C16.306 10.4795 16.2117 10.5153 16.1137 10.5168Z" fill="#282828"/>
<path d="M21.6736 10.6249V17.0545C21.6732 17.1647 21.6292 17.2702 21.5512 17.3479C21.4732 17.4257 21.3676 17.4693 21.2574 17.4693C21.1473 17.4693 21.0417 17.4257 20.9637 17.3479C20.8856 17.2702 20.8416 17.1647 20.8413 17.0545V10.9038L16.2719 12.456V22.706L26.2472 19.3184V9.07263L21.6736 10.6249ZM17.82 21.291C17.7409 21.3258 17.6555 21.3442 17.569 21.345C17.4826 21.3457 17.3969 21.329 17.3172 21.2956C17.2374 21.2622 17.1653 21.213 17.1052 21.1509C17.045 21.0888 16.9982 21.0152 16.9674 20.9344C16.9366 20.8536 16.9226 20.7675 16.9261 20.6811C16.9297 20.5947 16.9508 20.51 16.9881 20.432C17.0254 20.3541 17.0782 20.2845 17.1432 20.2276C17.2082 20.1706 17.2842 20.1275 17.3664 20.1008C17.4455 20.066 17.5309 20.0477 17.6173 20.0469C17.7037 20.0461 17.7894 20.0629 17.8692 20.0962C17.9489 20.1296 18.021 20.1788 18.0812 20.2409C18.1413 20.303 18.1882 20.3767 18.219 20.4574C18.2497 20.5382 18.2638 20.6244 18.2602 20.7107C18.2567 20.7971 18.2356 20.8818 18.1983 20.9598C18.161 21.0378 18.1082 21.1073 18.0432 21.1643C17.9781 21.2212 17.9022 21.2643 17.82 21.291ZM19.8508 20.596C19.7715 20.6305 19.6861 20.6486 19.5997 20.6491C19.5132 20.6497 19.4276 20.6327 19.3479 20.5992C19.2682 20.5658 19.1961 20.5165 19.1359 20.4545C19.0757 20.3924 19.0288 20.3188 18.9978 20.2381C18.9669 20.1573 18.9526 20.0712 18.9559 19.9848C18.9592 19.8984 18.9799 19.8136 19.0168 19.7354C19.0537 19.6573 19.1061 19.5874 19.1708 19.5301C19.2354 19.4727 19.3111 19.429 19.3931 19.4017C19.4723 19.3672 19.5578 19.3492 19.6442 19.3486C19.7307 19.3481 19.8163 19.365 19.896 19.3985C19.9757 19.4319 20.0478 19.4812 20.108 19.5433C20.1681 19.6053 20.2151 19.6789 20.246 19.7597C20.277 19.8404 20.2912 19.9265 20.288 20.0129C20.2847 20.0993 20.264 20.1841 20.2271 20.2623C20.1901 20.3404 20.1378 20.4103 20.0731 20.4677C20.0084 20.525 19.9328 20.5687 19.8508 20.596Z" fill="#282828"/>
<path d="M5.46007 11.1618H4.66603C4.55589 11.1621 4.45039 11.2061 4.37263 11.2841C4.29488 11.3621 4.25122 11.4678 4.25122 11.5779C4.25122 11.6881 4.29488 11.7937 4.37263 11.8717C4.45039 11.9497 4.55589 11.9937 4.66603 11.9941H7.91125C8.02057 11.9957 8.12489 12.0402 8.20164 12.1181C8.27839 12.196 8.32142 12.3009 8.32142 12.4102C8.32142 12.5196 8.27839 12.6245 8.20164 12.7024C8.12489 12.7803 8.02057 12.8248 7.91125 12.8264H5.46007V13.9001C5.04976 13.9005 4.22107 13.8998 3.81098 13.9001C3.70191 13.9021 3.59797 13.9468 3.52154 14.0246C3.4451 14.1024 3.40228 14.2072 3.40228 14.3163C3.40229 14.4253 3.44512 14.5301 3.52156 14.6079C3.598 14.6857 3.70194 14.7304 3.81101 14.7324H9.41357C9.52284 14.7341 9.62708 14.7786 9.70377 14.8565C9.78046 14.9344 9.82344 15.0393 9.82344 15.1486C9.82344 15.2579 9.78046 15.3628 9.70377 15.4406C9.62708 15.5185 9.52284 15.5631 9.41357 15.5647H5.46007V16.6384H2.16332C2.05391 16.6399 1.94948 16.6843 1.87263 16.7622C1.79577 16.8401 1.75269 16.9451 1.75269 17.0545C1.75269 17.164 1.79577 17.269 1.87263 17.3469C1.94948 17.4248 2.05391 17.4692 2.16332 17.4707C3.8659 17.4716 6.47068 17.4701 8.15259 17.4707C8.26189 17.4723 8.36616 17.5169 8.44288 17.5948C8.5196 17.6726 8.5626 17.7776 8.56259 17.8869C8.56259 17.9962 8.51958 18.1011 8.44286 18.179C8.36614 18.2568 8.26186 18.3014 8.15256 18.303H5.46007V19.281L15.4395 22.706V12.5351L5.46007 9.07263V11.1618Z" fill="#282828"/>
</svg>
